# xmcd
#
# Track frame offsets: 
#        150
#        13582
#        27547
#        42177
#        54870
#        66792
#
# Disc length: 1064 seconds
#
# Revision: 0
# Processed by: cddbd v1.5.2PL0 Copyright (c) Steve Scherf et al.
# Submitted via: ExactAudioCopy v0.99pb3
#
DISCID=45042606
DTITLE=Mickey Gilley - Mellow Country
DYEAR=1900
DGENRE=Country
TTITLE0=Don't The Girls All Get Prettier At Closing Time
TTITLE1=You Don't Know Me
TTITLE2=Talk To Me
TTITLE3=Swinging Doors
TTITLE4=Chains of Love
TTITLE5=True Love Ways
EXTD=
EXTT0=
EXTT1=
EXTT2=
EXTT3=
EXTT4=
EXTT5=
PLAYORDER=
